<svg version="1.1" xmlns="http://www.w3.org/2000/svg" xmlns:xlink="http://www.w3.org/1999/xlink" x="0px" y="0px" viewBox="0 0 256 256">
<path id="heart" fill="#4b3f25" d="M128,233.8L128,233.8c-1.4,0-2.7-0.6-3.6-1.5l-84.7-85.9C20.5,127.2,10,104.4,10,82.2c0-35.9,23.8-60,59.3-60c30.5,0,42.6,13.6,58.7,32.5c16.1-18.9,28.2-32.5,58.7-32.5c35.5,0,59.3,24.1,59.3,60c0,22.2-10.5,45-29.7,64.2l-84.7,85.9C130.7,233.3,129.3,233.8,128,233.8z M69.3,32.4c-29.8,0-49.1,19.6-49.1,49.8c0,19.5,9.5,39.7,26.7,57l81.1,82.3l81.1-82.3c17.3-17.3,26.8-37.5,26.8-57c0-30.2-19.3-49.8-49.1-49.8c-26.4,0-36,11.3-51.8,29.9l-3,3.5c-1,1.1-2.4,1.8-3.9,1.8l0,0c-1.5,0-2.9-0.7-3.9-1.8l-3-3.5C105.3,43.7,95.7,32.4,69.3,32.4z"/>
</svg>
